Coordinates
version=1
nRows=13
nColumns=40
inDegrees=yes

Units are S.I. units (second, meters, Newtons, ...)
If the header above contains a line with 'inDegrees', this indicates whether rotational values are in degrees (yes) or radians (no).

endheader
time	pelvis_tilt	pelvis_list	pelvis_rotation	pelvis_tx	pelvis_ty	pelvis_tz	hip_flexion_r	hip_adduction_r	hip_rotation_r	knee_angle_r	knee_angle_r_beta	ankle_angle_r	subtalar_angle_r	mtp_angle_r	hip_flexion_l	hip_adduction_l	hip_rotation_l	knee_angle_l	knee_angle_l_beta	ankle_angle_l	subtalar_angle_l	mtp_angle_l	lumbar_extension	lumbar_bending	lumbar_rotation	arm_flex_r	arm_add_r	arm_rot_r	elbow_flex_r	pro_sup_r	wrist_flex_r	wrist_dev_r	arm_flex_l	arm_add_l	arm_rot_l	elbow_flex_l	pro_sup_l	wrist_flex_l	wrist_dev_l
      0.00500000	     -0.65334423	      3.96551990	     -2.65232825	      0.22447838	      0.90269674	     -1.19645127	      2.19585584	    -25.79211143	    -35.30574353	      7.59747798	      0.13260101	     -6.71345548	     14.18178447	      0.00000000	      1.07688055	    -16.02474114	    -38.06490638	      6.81902850	      0.11901450	     -6.05608626	     19.84859859	      0.00000000	    -15.06873564	     -3.73591729	     -2.51474857	     33.86389656	    -14.24929611	     33.86389656	     79.94139724	     43.18731003	      0.00000000	      0.00000000	     33.86389656	    -14.24929611	     33.86389656	     79.94139724	     43.18731003	      0.00000000	      0.00000000
      0.01000000	     -0.68258543	      3.62086905	     -2.51276965	      0.22447566	      0.90268838	     -1.19669900	      1.99092793	    -25.28756740	    -35.31576076	      7.24564846	      0.12646042	     -6.88413582	     13.95094790	      0.00000000	      1.32027684	    -16.60245215	    -38.25402940	      7.36062891	      0.12846721	     -5.64617372	     20.40296465	      0.00000000	    -15.05414059	     -3.23798671	     -2.51391207	     34.11821802	    -14.27360471	     34.11821802	     79.71233563	     43.29375189	      0.00000000	      0.00000000	     34.11821802	    -14.27360471	     34.11821802	     79.71233563	     43.29375189	      0.00000000	      0.00000000
      0.01500000	     -0.66715494	      4.03299902	     -2.71755288	      0.22446874	      0.90266829	     -1.19628433	      2.27259604	    -25.86846398	    -35.21249738	      7.64010009	      0.13334490	     -6.70464342	     14.14447419	      0.00000000	      1.04608869	    -15.93104688	    -38.08199403	      6.74263780	      0.11768123	     -6.12504445	     19.79828575	      0.00000000	    -15.04325810	     -3.81633970	     -2.39848339	     34.23874638	    -14.28667373	     34.23874638	     79.55077921	     43.43973968	      0.00000000	      0.00000000	     34.23874638	    -14.28667373	     34.23874638	     79.55077921	     43.43973968	      0.00000000	      0.00000000
      0.02000000	     -0.66457302	      3.85768649	     -2.67560471	      0.22447745	      0.90271720	     -1.19639276	      2.17556672	    -25.61967069	    -35.21201946	      7.47491196	      0.13046182	     -6.80614072	     14.01598517	      0.00000000	      1.05244352	    -16.12757495	    -38.00650094	      6.76146399	      0.11800981	     -6.07094922	     19.76518100	      0.00000000	    -15.04971951	     -3.67774408	     -2.59237754	     35.39285457	    -14.39522853	     35.39285457	     78.51265190	     44.03754024	      0.00000000	      0.00000000	     35.39285457	    -14.39522853	     35.39285457	     78.51265190	     44.03754024	      0.00000000	      0.00000000
      0.02500000	     -0.68099333	      3.97010266	     -2.65698468	      0.22451385	      0.90267362	     -1.19639922	      2.20251738	    -25.76634924	    -35.22767466	      7.52795006	      0.13138751	     -6.76045540	     14.04979139	      0.00000000	      1.10425394	    -16.02845085	    -38.09638033	      6.82868619	      0.11918306	     -6.06606408	     19.90681213	      0.00000000	    -15.02146601	     -3.70100416	     -2.42115231	     35.57352084	    -14.41229824	     35.57352084	     78.34779639	     44.12943833	      0.00000000	      0.00000000	     35.57352084	    -14.41229824	     35.57352084	     78.34779639	     44.12943833	      0.00000000	      0.00000000
      0.03000000	     -0.67940540	      3.98067981	     -2.66970119	      0.22452133	      0.90267929	     -1.19635701	      2.20917371	    -25.77438912	    -35.20752760	      7.52590465	      0.13135182	     -6.76847493	     14.03772946	      0.00000000	      1.08538466	    -16.00120086	    -38.06278269	      6.78824524	      0.11847723	     -6.08231792	     19.83349882	      0.00000000	    -15.01997800	     -3.73054267	     -2.42773818	     35.99357957	    -14.45246336	     35.99357957	     77.96429805	     44.30986533	      0.00000000	      0.00000000	     35.99357957	    -14.45246336	     35.99357957	     77.96429805	     44.30986533	      0.00000000	      0.00000000
      0.03500000	     -0.72601479	      4.10457581	     -2.70148611	      0.22455023	      0.90252141	     -1.19630167	      2.32737569	    -25.95380950	    -35.17434491	      7.64424980	      0.13341733	     -6.63496918	     14.11121757	      0.00000000	      1.16615769	    -15.92272441	    -38.27524828	      6.92198251	      0.12081139	     -5.95528178	     20.12171102	      0.00000000	    -14.94512409	     -3.81894549	     -2.28974825	     36.30828006	    -14.47970434	     36.30828006	     77.75226860	     44.37445322	      0.00000000	      0.00000000	     36.30828006	    -14.47970434	     36.30828006	     77.75226860	     44.37445322	      0.00000000	      0.00000000
      0.04000000	     -0.72767759	      3.99119993	     -2.64531045	      0.22458022	      0.90258231	     -1.19637983	      2.26656781	    -25.80548424	    -35.27507885	      7.57195292	      0.13215551	     -6.72532089	     14.11756108	      0.00000000	      1.14197662	    -15.99899256	    -38.05155430	      6.80508893	      0.11877121	     -6.07683412	     19.86951963	      0.00000000	    -14.95193206	     -3.75340345	     -2.44673247	     36.50637219	    -14.49727933	     36.50637219	     77.60630075	     44.42943675	      0.00000000	      0.00000000	     36.50637219	    -14.49727933	     36.50637219	     77.60630075	     44.42943675	      0.00000000	      0.00000000
      0.04500000	     -0.70524228	      3.74561397	     -2.55199231	      0.22460329	      0.90270398	     -1.19654429	      2.07635458	    -25.44709292	    -35.30988920	      7.33194074	      0.12796651	     -6.86616966	     13.92876670	      0.00000000	      1.19693938	    -16.32816451	    -38.05328544	      6.97601106	      0.12175436	     -5.92184092	     20.02694591	      0.00000000	    -14.99896054	     -3.47811079	     -2.61790890	     37.22344266	    -14.55872455	     37.22344266	     77.11593461	     44.61293696	      0.00000000	      0.00000000	     37.22344266	    -14.55872455	     37.22344266	     77.11593461	     44.61293696	      0.00000000	      0.00000000
      0.05000000	     -0.71522914	      3.94840602	     -2.62395968	      0.22459986	      0.90263103	     -1.19640218	      2.23578366	    -25.76197594	    -35.32971686	      7.57818008	      0.13226419	     -6.72635154	     14.14783248	      0.00000000	      1.13487591	    -16.04557977	    -38.03917192	      6.80830755	      0.11882738	     -6.05240857	     19.85830410	      0.00000000	    -14.96039660	     -3.67191364	     -2.43979993	     37.57251576	    -14.58784530	     37.57251576	     76.89724512	     44.68138617	      0.00000000	      0.00000000	     37.57251576	    -14.58784530	     37.57251576	     76.89724512	     44.68138617	      0.00000000	      0.00000000
      0.05500000	     -0.73824095	      4.00876345	     -2.64754285	      0.22461352	      0.90257762	     -1.19640178	      2.28826733	    -25.83310006	    -35.25028218	      7.61181890	      0.13285130	     -6.69145519	     14.09513006	      0.00000000	      1.13693659	    -15.95483941	    -38.03821809	      6.74599689	      0.11773986	     -6.08701605	     19.79103779	      0.00000000	    -14.92202084	     -3.72870193	     -2.45235172	     37.62806085	    -14.59174731	     37.62806085	     76.87860906	     44.68303972	      0.00000000	      0.00000000	     37.62806085	    -14.59174731	     37.62806085	     76.87860906	     44.68303972	      0.00000000	      0.00000000
      0.06000000	     -0.74403240	      4.01159349	     -2.64206482	      0.22462390	      0.90257664	     -1.19635577	      2.28229696	    -25.82718312	    -35.25799785	      7.58221511	      0.13233462	     -6.71144967	     14.07748792	      0.00000000	      1.14361168	    -15.96027642	    -38.03924696	      6.75305117	      0.11786298	     -6.09437055	     19.84196296	      0.00000000	    -14.90463929	     -3.71040239	     -2.35072410	     37.71268562	    -14.59955480	     37.71268562	     76.80847171	     44.71318431	      0.00000000	      0.00000000	     37.71268562	    -14.59955480	     37.71268562	     76.80847171	     44.71318431	      0.00000000	      0.00000000
      0.06500000	     -0.73263877	      3.87261120	     -2.52557173	      0.22463791	      0.90266702	     -1.19657352	      2.10644519	    -25.60580932	    -35.31540103	      7.35874499	      0.12843433	     -6.86868096	     13.97221923	      0.00000000	      1.19848477	    -16.13148959	    -37.93217465	      6.83651286	      0.11931966	     -6.03808959	     19.79038932	      0.00000000	    -14.93589850	     -3.69266715	     -2.78422382	     38.10856133	    -14.63189050	     38.10856133	     76.57834346	     44.77332379	      0.00000000	      0.00000000	     38.10856133	    -14.63189050	     38.10856133	     76.57834346	     44.77332379	      0.00000000	      0.00000000
